<svg xmlns="http://www.w3.org/2000/svg" viewBox="0 0 20.36 20.36">
 <path d="M19.07,1.29,18.36,2h0Zm0,1.42.71.7h0ZM17.66,1.29,17,.59h0ZM10.18,8.77l-.71.7a1,1,0,0,0,1.42,0ZM2.71,1.29l.7-.7h0Zm-1.42,0L2,2H2Zm0,1.42-.7.7h0Zm7.48,7.47.7.71a1,1,0,0,0,0-1.42ZM1.29,17.66.59,17h0Zm0,1.41L2,18.36H2Zm1.42,0,.7.71h0Zm7.47-7.47.71-.71a1,1,0,0,0-.71-.29,1,1,0,0,0-.71.29Zm7.48,7.47-.71.71h0Zm1.41-1.41.71-.71h0ZM11.6,10.18l-.71-.71a1,1,0,0,0-.29.71,1,1,0,0,0,.29.71ZM18.36,2h0l1.42,1.41a2,2,0,0,0,0-2.82Zm0,0h0L19.78.59A2,2,0,0,0,17,.59ZM10.89,9.47,18.36,2,17,.59,9.47,8.06ZM2,2,9.47,9.47l1.42-1.41L3.41.59ZM2,2H2L3.41.59A2,2,0,0,0,.59.59ZM2,2H2L.59.59a2,2,0,0,0,0,2.82ZM9.47,9.47,2,2,.59,3.41l7.47,7.48ZM2,18.36l7.47-7.47L8.06,9.47.59,17Zm0,0H2L.59,17a2,2,0,0,0,0,2.83Zm0,0H2L.59,19.78a2,2,0,0,0,2.82,0Zm7.47-7.47L2,18.36l1.41,1.42,7.48-7.48Zm8.89,7.47-7.47-7.47L9.47,12.3,17,19.78Zm0,0h0L17,19.78a2,2,0,0,0,2.83,0Zm0,0h0l1.42,1.42a2,2,0,0,0,0-2.83Zm-7.47-7.47,7.47,7.47L19.78,17,12.3,9.47ZM18.36,2,10.89,9.47l1.41,1.42,7.48-7.48Z"/>
</svg>
