<svg xmlns="http://www.w3.org/2000/svg" viewBox="0 0 161.28 24">
 <defs>
  <style>.cls-1{fill-rule:evenodd;}</style>
 </defs>
 <path class="cls-1" d="M27.55,24A10.57,10.57,0,0,0,38.09,13.47a10.63,10.63,0,0,0-3.2-7.79L32.58,3.33A10.79,10.79,0,0,0,24.89,0,10.59,10.59,0,0,0,14.34,10.64a10.85,10.85,0,0,0,3.28,7.77l1.87,1.88C22.17,23,24.37,24,27.55,24Zm-11.28-.34H3L0,20.67V.4H4.79l3.1,3V16.08h5.43l2.95,3ZM5,1.25V16.08H7.38V3.6ZM2.22,18.68V2.5h.51V18.2H11.4v.48ZM.86,20.83l2.29,2.32H15.76V19.26l-2.29-2.32v3.89ZM16.61,10.64a8.28,8.28,0,1,0,16.56,0,8.28,8.28,0,1,0-16.56,0Zm8.28,8a7.82,7.82,0,0,0,7.76-8,7.76,7.76,0,1,0-15.52,0A7.81,7.81,0,0,0,24.89,18.64Zm-5.51-8a5.68,5.68,0,0,0,2.47,4.92,6.3,6.3,0,0,1-.46-2.5,6.1,6.1,0,0,1,6-6.29,4.32,4.32,0,0,1,2,.48,5.47,5.47,0,0,0-4.53-2.37A5.56,5.56,0,0,0,19.38,10.63Zm8.17,12.86c-3,0-5.25-.94-7.74-3.53a10.48,10.48,0,0,0,15.62-9.32,10.26,10.26,0,0,0-1.28-5,10.3,10.3,0,0,1,3.44,7.85A10.07,10.07,0,0,1,27.55,23.49ZM22.69,16a5.47,5.47,0,0,0,2.2.45,5.61,5.61,0,0,0,5.51-5.81,6.18,6.18,0,0,0-.52-2.55,3.82,3.82,0,0,0-2.48-.82,5.58,5.58,0,0,0-5.51,5.78A4.55,4.55,0,0,0,22.69,16Zm29.77,8a17.91,17.91,0,0,0,7.65-1.69V11.74L57,8.76H49V13l2.8,2.7.52,0v.54a8.32,8.32,0,0,1-2.06.24,7.49,7.49,0,0,1-3.08-.61,4.19,4.19,0,0,1-.87-2.8c0-3.56,2.52-6,6.19-6a12.22,12.22,0,0,1,6.38,2v-5L56,1.2A16.44,16.44,0,0,0,49.79,0C43.58,0,38.86,4.42,38.86,10.66a11,11,0,0,0,3.29,7.92l2.28,2.25A11.06,11.06,0,0,0,52.46,24ZM43.93,10.74a5.34,5.34,0,0,0,2.43,4.68,4.55,4.55,0,0,1-.56-2.37c0-3.83,2.77-6.46,6.7-6.46a12.56,12.56,0,0,1,5.87,1.65V4.35L56.08,2v4.4a10.08,10.08,0,0,0-5.6-1.59C46.56,4.84,43.93,7.16,43.93,10.74Zm5.73,8.39a8.17,8.17,0,0,1-8.52-8.49c0-4.86,3.62-8.35,8.66-8.35A15,15,0,0,1,54,2.92v.52a13.94,13.94,0,0,0-4.24-.67c-4.76,0-8.14,3.28-8.14,7.87a7.66,7.66,0,0,0,8,8,14.49,14.49,0,0,0,4.83-.92V11.18H51.06V10.7H55V18A14.74,14.74,0,0,1,49.66,19.13Zm-5.48.79a10.64,10.64,0,0,0,8.28,3.57A17.72,17.72,0,0,0,59.6,22V12L57.17,9.62v9.84a15.92,15.92,0,0,1-7.55,1.85A11.76,11.76,0,0,1,44.18,19.92Zm8.13-4.75-.3,0-2.16-2h2.46Zm33.1-1.7A10.58,10.58,0,0,1,74.86,24c-3.18,0-5.37-1-8.06-3.71l-1.87-1.88a10.88,10.88,0,0,1-3.27-7.77A10.58,10.58,0,0,1,72.2,0a10.77,10.77,0,0,1,7.69,3.33L82.2,5.68A10.64,10.64,0,0,1,85.41,13.47ZM72.2,19.12a8.34,8.34,0,0,1-8.28-8.48,8.29,8.29,0,1,1,16.57,0A8.34,8.34,0,0,1,72.2,19.12ZM80,10.64a7.76,7.76,0,1,1-15.52,0,7.76,7.76,0,1,1,15.52,0ZM69.17,15.55a5.71,5.71,0,0,1-2.48-4.92A5.57,5.57,0,0,1,72.2,4.87a5.47,5.47,0,0,1,4.53,2.37,4.26,4.26,0,0,0-2-.48,6.1,6.1,0,0,0-6,6.29A6.13,6.13,0,0,0,69.17,15.55Zm-2,4.41c2.49,2.59,4.74,3.53,7.73,3.53a10.07,10.07,0,0,0,10-10,10.29,10.29,0,0,0-3.43-7.85,10.48,10.48,0,0,1,1.28,5A10.62,10.62,0,0,1,72.2,21.31,10.5,10.5,0,0,1,67.13,20Zm5.07-3.51A5.39,5.39,0,0,1,70,16a4.55,4.55,0,0,1-.8-2.95,5.58,5.58,0,0,1,5.51-5.78,3.79,3.79,0,0,1,2.47.82,6.18,6.18,0,0,1,.53,2.55A5.62,5.62,0,0,1,72.2,16.45ZM97,23.66H92.1l-2.95-3V8H86.81l-3-3V.4H99.23l3,3V8H97Zm-4.74-.51L90,20.83h4.1V5.12h5.28V1.27l2.3,2.32V7.44H96.53V23.15ZM91.37,3V18.72h.5V3h5.45V2.52H85.93V3ZM87,7.44,84.72,5.12h4.43V7.44Zm30,16.22H112.1l-3-3v-8L101.28.4h6L112,3.3l1.07,1.81L115.83.4h5.78l2.14,2.79L117,13.46Zm-4.74-.51L110,20.83h4.09V12.68L121.5,1.1l1.63,2.12-6.61,10.1v9.83ZM108,1.42l3.62,6.13,1.15-1.94-1.14-1.94Zm3.36,17.3v-6.6l-6-9.62H106l5.64,9.17,5.66-9.17h.59l-6,9.65v6.57Zm21.43,4.94h-4.93l-3-3V.4h8a8,8,0,0,1,5.78,2.3L140.91,5A7,7,0,0,1,143,10.26c0,4.12-3.51,7.37-8,7.37h-2.17Zm-5.66-4.94V2.42h5.73c3.17,0,5.35,2,5.35,5a5.39,5.39,0,0,1-5.63,5.5h-5v5.79Zm5.45-6.27h-5V2.9h5.23c2.88,0,4.83,1.82,4.83,4.53A4.9,4.9,0,0,1,132.58,12.45Zm-4.53,10.7-2.29-2.32h4.09V14.94h2.73a7.54,7.54,0,0,0,7.88-7.49,6.76,6.76,0,0,0-.58-2.81c2,1.89,2.59,3.18,2.59,5.62,0,3.84-3.28,6.85-7.51,6.85h-2.67v6Zm1.8-18.23v5.52H132V7.1h3.38a2.6,2.6,0,0,0-2.58-2.18Zm2.66,5.52V7.61h2.94v.1a2.69,2.69,0,0,1-2.7,2.73Zm28.77,13.22H147.54l-2.95-3V.4h13.34l3,3V7.24h-8.61v.87h4.33l3,3v4.25h-7.29v.87h6.05l2.95,3ZM149.48,8.11V5h8.61V1.27l2.29,2.32V6.73h-8.61V8.11Zm-2.71-5.68V18.76h9.64v-.48h-9.14v-7.6h7.43V10.2h-7.43V2.92H156V2.43Zm2.71,13.79V12.78h7.29V9l2.29,2.32v3.54h-7.29v1.38Zm-4,4.61,2.29,2.32h13V19.4l-2.29-2.31v3.74Z"/>
</svg>
